<svg xmlns="http://www.w3.org/2000/svg" width="1000" height="650" viewBox="0 0 1000 650"><defs><linearGradient id="metal" x1="0" y1="0" x2="1" y2="1"><stop stop-color="#f6f6f6"/><stop offset=".3" stop-color="#cacbcd"/><stop offset=".51" stop-color="#fbfbfb"/><stop offset=".76" stop-color="#84868c"/><stop offset="1" stop-color="#e3e4e6"/></linearGradient><linearGradient id="shadow"><stop stop-color="#050505" stop-opacity=".7"/><stop offset="1" stop-color="#050505" stop-opacity="0"/></linearGradient><linearGradient id="blue" x1="0" y1="0" x2=".8" y2="1"><stop stop-color="#2e55d5"/><stop offset=".58" stop-color="#123bb6"/><stop offset="1" stop-color="#081a60"/></linearGradient><linearGradient id="green" x1="0" y1="0" x2="1" y2="1"><stop stop-color="#1b7159"/><stop offset=".45" stop-color="#09533e"/><stop offset="1" stop-color="#02271f"/></linearGradient><linearGradient id="red" x1="0" y1="0" x2=".9" y2="1"><stop stop-color="#7e2426"/><stop offset=".48" stop-color="#5c1119"/><stop offset="1" stop-color="#26070a"/></linearGradient></defs><rect width="1000" height="650" fill="#cdced0"/><path d="M0 0H1000V146L0 524Z" fill="#dedfe1"/><path d="M0 583L1000 182V650H0Z" fill="#b5b6b9"/><path d="M600 -90L1130 60V760L600 610Z" fill="url(#blue)"/><path d="M152 169L707 46L942 530L302 650Z" fill="#000" opacity=".12"/><g transform="translate(67 95) rotate(-8 270 220)"><rect x="50" y="47" width="424" height="477" fill="#2a2a2c" opacity=".12"/><path d="M76 33H476V509H76Z" fill="#a2a4a7"/><path d="M69 23H469V499H69Z" fill="#e0e1e3"/><rect x="53" y="9" width="400" height="478" fill="#f6f6f6"/><rect x="81" y="43" width="20" height="20" fill="#171719"/><text x="114" y="58" fill="#222" font-family="Arial,sans-serif" font-size="14" font-weight="bold" letter-spacing="2">ATLAS</text><path d="M81 89H422" stroke="#a0a0a0"/><text x="81" y="126" fill="#222" font-family="Arial,sans-serif" font-size="23" letter-spacing="-1">Material into meaning.</text><text x="82" y="151" fill="#898989" font-family="Arial,sans-serif" font-size="9" letter-spacing="1.5">SOURCE DOCUMENT / 03</text><rect x="81" y="181" width="175" height="5" fill="#48484a"/><rect x="81" y="200" width="306" height="4" fill="#b5b5b5"/><rect x="81" y="216" width="277" height="4" fill="#b5b5b5"/><rect x="81" y="232" width="321" height="4" fill="#b5b5b5"/><rect x="77" y="263" width="345" height="46" fill="#183cb5" fill-opacity=".06" stroke="#183cb5" stroke-opacity=".55"/><rect x="88" y="277" width="130" height="5" fill="#274cbb"/><rect x="88" y="291" width="277" height="3" fill="#96a7db"/><path d="M81 337H421M81 373H421M81 409H421M81 445H421M221 337V445M337 337V445" stroke="#cecece"/><rect x="90" y="352" width="76" height="4" fill="#9b9b9b"/><rect x="232" y="352" width="53" height="4" fill="#9b9b9b"/><rect x="348" y="352" width="52" height="4" fill="#9b9b9b"/><rect x="90" y="388" width="93" height="4" fill="#999"/><rect x="232" y="388" width="45" height="4" fill="#999"/></g><g transform="rotate(-8 670 320)"><rect x="482" y="109" width="421" height="457" rx="3" fill="#000" opacity=".16"/><rect x="471" y="94" width="421" height="457" rx="3" fill="#131416" stroke="#62656c"/><rect x="472" y="95" width="419" height="47" rx="2" fill="#25262a"/><circle cx="491" cy="117" r="3" fill="#76777b"/><circle cx="503" cy="117" r="3" fill="#56575b"/><circle cx="515" cy="117" r="3" fill="#56575b"/><text x="859" y="120" text-anchor="end" font-size="9" font-family="Arial,sans-serif" fill="#a2a4ab" letter-spacing="1">WORKSPACE</text><text x="519" y="185" font-family="Arial,sans-serif" font-size="21" fill="#f5f5f5" letter-spacing="-.5">A clearer structure.</text><text x="520" y="208" font-family="Arial,sans-serif" font-size="9" fill="#888b95" letter-spacing="1">NAME</text><text x="672" y="208" font-family="Arial,sans-serif" font-size="9" fill="#888b95" letter-spacing="1">DATE</text><text x="774" y="208" font-family="Arial,sans-serif" font-size="9" fill="#888b95" letter-spacing="1">VALUE</text><rect x="515" y="293" width="352" height="38" fill="#183cb5" fill-opacity=".36"/><path d="M522 248h345" stroke="#37383c"/><rect x="526" y="229" width="70" height="4" fill="#a8a9ad"/><rect x="672" y="229" width="30" height="4" fill="#82858c"/><rect x="776" y="229" width="42" height="4" fill="#d0d0d2"/><circle cx="853" cy="231" r="3" fill="#62646b"/><path d="M522 286h345" stroke="#37383c"/><rect x="526" y="267" width="82" height="4" fill="#a8a9ad"/><rect x="672" y="267" width="50" height="4" fill="#82858c"/><rect x="776" y="267" width="34" height="4" fill="#d0d0d2"/><circle cx="853" cy="269" r="3" fill="#62646b"/><path d="M522 324h345" stroke="#37383c"/><rect x="526" y="305" width="94" height="4" fill="#a8a9ad"/><rect x="672" y="305" width="30" height="4" fill="#82858c"/><rect x="776" y="305" width="26" height="4" fill="#d0d0d2"/><circle cx="853" cy="307" r="3" fill="#829fff"/><path d="M522 362h345" stroke="#37383c"/><rect x="526" y="343" width="70" height="4" fill="#a8a9ad"/><rect x="672" y="343" width="50" height="4" fill="#82858c"/><rect x="776" y="343" width="42" height="4" fill="#d0d0d2"/><circle cx="853" cy="345" r="3" fill="#62646b"/><path d="M522 400h345" stroke="#37383c"/><rect x="526" y="381" width="82" height="4" fill="#a8a9ad"/><rect x="672" y="381" width="30" height="4" fill="#82858c"/><rect x="776" y="381" width="34" height="4" fill="#d0d0d2"/><circle cx="853" cy="383" r="3" fill="#62646b"/><path d="M522 438h345" stroke="#37383c"/><rect x="526" y="419" width="94" height="4" fill="#a8a9ad"/><rect x="672" y="419" width="50" height="4" fill="#82858c"/><rect x="776" y="419" width="26" height="4" fill="#d0d0d2"/><circle cx="853" cy="421" r="3" fill="#62646b"/><path d="M522 476h345" stroke="#37383c"/><rect x="526" y="457" width="70" height="4" fill="#a8a9ad"/><rect x="672" y="457" width="30" height="4" fill="#82858c"/><rect x="776" y="457" width="42" height="4" fill="#d0d0d2"/><circle cx="853" cy="459" r="3" fill="#62646b"/><path d="M510 511h345" stroke="#383a40"/><text x="519" y="533" font-family="Arial,sans-serif" font-size="9" fill="#9b9ea7">07 items</text><circle cx="842" cy="530" r="3" fill="#a5baf9"/><text x="825" y="533" text-anchor="end" font-family="Arial,sans-serif" font-size="9" fill="#c2c3c7">Ready to review</text></g></svg>